# xmcd
#
# Track frame offsets:
#	150
#	11463
#	22395
#	35077
#	46609
#	58465
#	70722
#	82104
#	90909
#	102690
#	113214
#	126571
#	139527
#	151351
#	165358
#
# Disc length: 2318 seconds
#
# Revision: 1
# Processed by: cddbd v1.5.2PL0 Copyright (c) Steve Scherf et al.
# Submitted via: audiograbber 1.83.01
#
DISCID=cb090c0f
DTITLE=Patsy Cline - Crazy [CD 1)
DYEAR=2007
DGENRE=Blues
TTITLE0=Stop The World
TTITLE1=I Can See An Angel
TTITLE2=A Poor Man's Roses
TTITLE3=Just Out Of Reach
TTITLE4=In Care Of The Blues
TTITLE5=Today, Tomorrow and Forever
TTITLE6=A Stranger In My Arms
TTITLE7=Ain't No Wheels On This Ship
TTITLE8=Walkin' After Midnight
TTITLE9=Three Cigarettes In An Ashtray
TTITLE10=Keep Your Hands On The Throttle
TTITLE11=Just A Closer Walk With Thee
TTITLE12=Crazy Dreams
TTITLE13=A Church, A Courtroom, and Then Goodbye
TTITLE14=Come On In
EXTD=
EXTT0=
EXTT1=
EXTT2=
EXTT3=
EXTT4=
EXTT5=
EXTT6=
EXTT7=
EXTT8=
EXTT9=
EXTT10=
EXTT11=
EXTT12=
EXTT13=
EXTT14=
PLAYORDER=
